<?xml version="1.0" standalone="no"?>
<!DOCTYPE svg PUBLIC "-//W3C//DTD SVG 20010904//EN"
 "http://www.w3.org/TR/2001/REC-SVG-20010904/DTD/svg10.dtd">
<svg version="1.0" xmlns="http://www.w3.org/2000/svg"
 width="453.000000pt" height="453.000000pt" viewBox="0 0 453.000000 453.000000"
 preserveAspectRatio="xMidYMid meet">
<metadata>
Created by potrace 1.14, written by Peter Selinger 2001-2017
</metadata>
<g transform="translate(0.000000,453.000000) scale(0.100000,-0.100000)"
fill="#000000" stroke="none">
<path d="M4388 3124 c-2 -1 -25 -5 -53 -8 -27 -4 -61 -8 -75 -11 -14 -2 -45
-7 -70 -9 -42 -5 -60 -7 -157 -21 -65 -10 -236 -34 -288 -41 -27 -3 -58 -8
-69 -10 -10 -2 -44 -6 -75 -10 -91 -10 -130 -33 -131 -76 0 -15 -6 -14 -55 8
-30 14 -67 28 -82 31 -51 11 -187 5 -308 -12 -66 -9 -133 -19 -148 -21 -43 -5
-109 -15 -141 -20 -37 -6 -56 -26 -63 -67 l-5 -34 -62 26 c-51 21 -78 25 -161
25 -55 1 -125 -3 -155 -7 -30 -5 -68 -10 -85 -13 -28 -3 -269 -37 -360 -50
-22 -4 -56 -8 -75 -10 -19 -2 -46 -6 -60 -8 -14 -3 -50 -8 -80 -11 -30 -3 -62
-8 -70 -10 -8 -2 -40 -7 -70 -10 -30 -3 -82 -10 -115 -15 -33 -5 -89 -12 -125
-16 -36 -3 -67 -8 -70 -9 -5 -3 -36 -6 -208 -21 -35 -3 -71 -7 -80 -8 -9 -2
-57 -9 -107 -16 -49 -6 -101 -14 -115 -16 -14 -2 -50 -7 -80 -10 -30 -4 -63
-11 -74 -16 -10 -6 -53 -11 -95 -13 -64 -2 -235 -22 -347 -40 -51 -9 -74 -38
-74 -96 0 -66 28 -121 55 -106 6 3 25 -25 68 -103 38 -70 97 -176 140 -252 23
-40 26 -56 24 -121 -2 -54 -8 -79 -20 -91 -12 -12 -17 -34 -17 -72 0 -45 4
-59 24 -79 22 -22 31 -24 83 -20 61 6 105 11 163 19 19 3 71 10 115 16 164 23
175 31 175 124 0 44 -5 60 -25 84 -14 17 -25 38 -25 47 0 10 48 110 107 224
59 113 117 228 130 255 13 26 27 45 31 42 3 -4 7 -68 8 -144 2 -148 11 -197
52 -281 50 -103 182 -206 292 -227 134 -26 331 19 406 91 7 6 25 22 41 36 16
13 33 33 38 44 8 17 10 15 12 -15 9 -90 34 -108 131 -94 31 4 66 8 77 9 26 3
103 14 135 20 14 3 48 7 76 10 28 3 60 7 71 9 12 3 42 8 66 11 58 9 79 32 82
92 2 27 4 51 4 54 1 4 23 15 51 25 27 10 72 35 100 56 53 40 67 41 25 2 -34
-31 -36 -118 -3 -159 21 -27 23 -27 102 -21 45 3 90 8 101 10 11 2 99 14 195
27 207 28 220 35 220 119 0 46 2 51 28 61 59 22 116 53 147 81 44 38 55 13 16
-36 -23 -28 -27 -43 -25 -84 2 -57 17 -90 46 -101 22 -8 120 3 348 40 78 12
121 18 175 24 22 3 51 7 65 9 14 3 50 8 80 12 113 14 213 27 223 30 4 1 18 2
32 3 14 0 37 12 50 26 21 20 25 34 25 83 0 50 -4 63 -25 84 l-25 25 1 268 c2
265 2 267 25 295 19 23 24 39 24 88 0 53 -3 63 -26 81 -18 14 -39 20 -65 19
-21 -1 -40 -2 -41 -4z"/>
<path d="M3969 2026 c-2 -2 -28 -7 -58 -10 -29 -3 -68 -8 -85 -11 -28 -5 -78
-12 -99 -14 -5 -1 -5 -6 -2 -12 6 -9 92 -6 135 6 8 2 38 6 65 10 69 8 95 16
95 26 0 9 -43 13 -51 5z"/>
<path d="M3362 1942 c-22 -7 -12 -22 16 -22 38 0 72 11 72 22 0 8 -62 9 -88 0z"/>
<path d="M3289 1936 c-2 -3 -31 -7 -64 -11 -91 -9 -116 -16 -112 -28 3 -7 8
-11 13 -10 16 2 78 11 132 18 28 4 52 11 52 15 0 10 -15 21 -21 16z"/>
<path d="M3908 1902 c-13 -2 -16 -11 -13 -35 3 -22 -3 -43 -16 -62 l-21 -30 7
58 7 59 -44 -4 c-36 -3 -44 -7 -46 -27 -2 -13 1 -27 7 -30 11 -7 15 -118 5
-169 l-6 -32 46 2 c43 3 46 5 46 30 0 14 -6 28 -12 31 -10 3 -10 10 2 31 13
26 15 26 28 9 7 -10 12 -29 11 -43 -2 -45 0 -50 24 -46 12 3 32 5 44 5 25 1
29 35 7 61 -6 8 -21 32 -33 52 -17 31 -19 42 -9 63 6 14 17 25 24 25 18 0 24
13 18 37 -6 20 -28 24 -76 15z"/>
<path d="M2910 1884 c-47 -6 -105 -15 -130 -18 -58 -8 -104 -14 -160 -21 -25
-3 -56 -8 -70 -10 -14 -2 -50 -7 -80 -10 -30 -4 -66 -8 -80 -10 -38 -6 -100
-14 -150 -20 -25 -3 -72 -10 -105 -14 -33 -5 -85 -12 -116 -16 -31 -3 -65 -7
-75 -9 -11 -2 -44 -7 -74 -11 -56 -7 -66 -8 -155 -21 -27 -3 -58 -6 -67 -6
-10 0 -18 -6 -18 -15 0 -11 8 -14 38 -9 20 3 57 8 82 11 25 3 56 8 70 10 14 2
50 7 80 10 30 3 66 8 80 11 14 2 43 6 65 9 22 2 60 7 85 10 62 9 87 12 145 19
28 3 59 8 70 10 11 2 49 7 85 11 36 4 74 9 85 11 11 2 44 6 73 10 29 3 61 7
70 9 9 1 42 6 72 10 30 3 66 8 80 10 71 11 111 16 151 21 39 5 69 9 92 13 4 0
7 5 7 11 0 11 -36 10 -150 -6z"/>
<path d="M3698 1875 c-4 -3 -75 -14 -99 -15 -19 0 -32 -49 -15 -56 12 -5 19
-119 9 -144 -3 -8 -7 -25 -8 -38 -2 -21 1 -22 39 -18 23 3 44 5 48 5 8 1 2 40
-12 76 -17 45 10 28 30 -20 17 -39 23 -45 50 -45 27 0 30 3 30 30 0 19 -5 30
-14 30 -22 0 -32 41 -12 52 17 10 23 102 8 126 -8 12 -46 24 -54 17z m2 -84
c0 -13 -7 -18 -22 -17 -26 1 -32 28 -8 37 20 9 30 2 30 -20z"/>
<path d="M3441 1841 c-22 -6 -28 -18 -47 -96 -13 -50 -27 -98 -33 -107 -6 -10
-11 -29 -11 -44 0 -24 2 -25 38 -20 20 3 40 5 44 6 3 0 5 8 3 18 -2 9 -4 23
-4 30 -1 7 -6 10 -12 6 -7 -4 -10 -1 -7 7 5 16 64 24 73 9 3 -5 -1 -10 -9 -10
-19 0 -22 -49 -3 -51 30 -3 73 4 84 13 12 10 14 48 2 48 -7 0 -48 103 -64 157
-8 30 -26 41 -54 34z m18 -123 c1 -10 -6 -18 -15 -18 -11 0 -14 8 -10 33 2 17
5 34 6 37 3 9 19 -34 19 -52z"/>
<path d="M3244 1814 c-5 -1 -26 -5 -46 -9 -34 -5 -38 -9 -38 -36 0 -18 4 -28
10 -24 6 4 10 -21 10 -69 0 -41 -4 -77 -9 -80 -4 -3 -6 -16 -4 -30 4 -21 9
-23 36 -20 18 3 38 7 45 9 15 5 16 55 1 55 -6 0 -9 10 -7 22 2 18 10 23 38 25
50 4 64 23 61 84 -1 29 -7 59 -13 66 -9 11 -51 15 -84 7z m36 -66 c0 -5 0 -15
0 -23 0 -9 -9 -15 -23 -15 -19 0 -23 5 -21 23 3 27 0 24 24 23 11 0 20 -4 20
-8z"/>
<path d="M2922 1771 c-6 -3 -20 -44 -31 -90 -12 -46 -27 -97 -35 -112 -19 -37
-14 -64 10 -63 64 3 64 3 64 35 0 23 -4 30 -14 26 -10 -4 -13 -1 -10 7 7 18
74 27 74 10 0 -6 -6 -14 -14 -17 -19 -8 -9 -47 13 -47 9 0 33 3 53 6 40 7 40
7 8 79 -9 22 -28 70 -40 106 -20 55 -28 67 -46 67 -12 0 -26 -3 -32 -7z m32
-107 c5 -16 2 -23 -14 -27 -18 -5 -20 -2 -14 16 4 12 7 28 7 35 0 17 13 2 21
-24z"/>
<path d="M2778 1752 c-35 -3 -38 -6 -38 -33 0 -16 5 -29 10 -29 6 0 10 -19 10
-42 l0 -43 -44 66 c-42 63 -45 65 -80 61 -32 -4 -36 -7 -36 -33 0 -16 5 -29
12 -29 8 0 9 -28 5 -100 -7 -108 -5 -110 46 -91 19 8 23 15 20 35 -3 14 -8 24
-12 22 -3 -2 -7 19 -8 46 l-2 50 47 -68 c37 -54 53 -70 75 -72 l28 -3 -4 105
c-2 61 0 107 5 108 6 2 8 15 6 28 -3 22 -7 25 -40 22z"/>
<path d="M2530 1720 c-20 -3 -41 -9 -47 -13 -13 -8 -6 -37 10 -48 5 -4 11 -39
12 -78 l2 -71 -29 0 c-26 0 -28 3 -29 43 -1 23 -2 54 -3 70 -2 15 2 27 9 27 7
0 10 11 7 30 -3 24 -8 29 -26 26 -11 -3 -31 -5 -43 -5 -19 -1 -23 -7 -23 -31
0 -16 5 -30 10 -30 6 0 10 -34 10 -83 0 -51 5 -88 12 -95 26 -26 152 -6 160
26 3 10 3 55 2 100 -2 46 0 82 5 82 8 0 5 52 -2 55 -1 1 -18 -1 -37 -5z"/>
<path d="M1930 1675 c-47 -7 -110 -16 -140 -20 -81 -10 -96 -13 -137 -19 -35
-6 -61 -9 -148 -21 -153 -20 -201 -27 -207 -31 -14 -9 3 -25 20 -20 10 3 40 8
67 11 67 9 91 12 188 25 45 7 96 14 112 16 17 2 46 6 65 9 45 7 95 14 145 20
22 3 58 8 80 11 22 3 50 7 62 8 13 1 28 7 35 14 15 15 -23 14 -142 -3z"/>
<path d="M1320 1669 c-30 -4 -82 -11 -115 -14 -33 -4 -62 -9 -65 -10 -3 -2
-37 -6 -75 -10 -94 -8 -137 -18 -133 -30 3 -11 7 -11 88 0 30 4 71 9 90 11 19
2 53 7 75 10 147 22 221 31 226 28 4 -2 9 3 13 11 6 17 -13 18 -104 4z"/>
<path d="M2184 1665 c-12 -8 -12 -14 -1 -35 16 -31 22 -155 9 -164 -6 -3 -9
-14 -7 -24 2 -9 4 -20 4 -23 1 -3 37 0 81 6 44 6 80 9 81 6 0 -3 4 2 8 12 4
10 5 33 3 51 -3 28 -7 32 -27 29 -13 -3 -22 -12 -21 -20 1 -10 -9 -17 -26 -20
-23 -3 -28 0 -29 19 -4 100 -4 128 3 128 4 0 8 11 8 25 0 23 -4 25 -36 23 -20
-1 -42 -7 -50 -13z"/>
<path d="M782 1597 c-23 -4 -40 -12 -37 -17 5 -8 64 -6 120 5 11 2 23 4 28 4
4 1 7 6 7 11 0 12 -52 11 -118 -3z"/>
<path d="M658 1582 c-10 -2 -18 -8 -18 -13 0 -15 73 -6 78 8 3 12 -17 14 -60
5z"/>
<path d="M1209 1576 c-2 -3 -30 -7 -60 -10 -133 -13 -191 -25 -183 -37 10 -16
265 18 265 36 1 10 -15 18 -22 11z"/>
<path d="M1850 1567 c-3 -3 -30 -8 -60 -11 -30 -4 -68 -8 -85 -11 -16 -3 -48
-7 -70 -11 -22 -3 -51 -7 -65 -9 -14 -2 -47 -7 -75 -10 -27 -3 -53 -9 -58 -14
-16 -16 10 -21 64 -11 30 5 77 12 104 15 158 20 276 41 276 50 0 10 -23 19
-31 12z"/>
<path d="M898 1535 c-4 -4 -75 -16 -105 -18 -7 0 -13 -7 -13 -14 0 -10 9 -12
33 -8 17 3 46 7 62 9 18 2 31 10 33 20 3 16 0 20 -10 11z"/>
<path d="M1359 1496 c-2 -2 -19 -6 -38 -8 -19 -2 -36 -9 -39 -16 -2 -8 11 -10
45 -6 60 6 83 13 83 25 0 9 -43 13 -51 5z"/>
<path d="M1195 1470 c-18 -7 -18 -9 -3 -15 21 -9 63 -3 63 9 0 12 -36 16 -60
6z"/>
</g>
</svg>
